#!OML:ASF F:\twosubjects\two\wednesday\Session 1\rory1.ASF
:FULLY-SPECIFIED
:DEGREES
83
root 18.5233 18.2171 -2.37596 -1.09112 0.529168 -5.06281
lowerback 2.71142 -0.145704 4.46685
upperback 0.930587 -0.0552134 2.89045
thorax -0.565937 -0.0271916 0.465508
lowerneck -10.3642 -3.23199 -4.34022
upperneck 13.7881 -3.64018 -0.184659
head 5.96127 -2.008 0.352071
rclavicle -2.72087e-015 -7.15625e-015
rhumerus -37.3749 -39.0701 -64.1662
rradius 12.7416
rwrist 28.0378
rhand -15.142 29.028
rfingers 7.12502
rthumb 11.0278 -0.662287
lclavicle -2.72087e-015 -7.15625e-015
lhumerus -5.05188 -0.571913 84.2159
lradius 38.5797
lwrist 20.5135
lhand -24.19 16.5334
lfingers 7.12502
lthumb 2.29382 46.5009
rfemur -6.69263 6.77888 31.6963
rtibia 28.1693
rfoot -16.9072 -2.62251
rtoes 12.4939
lfemur -37.0411 2.69706 -13.2315
ltibia 78.2329
lfoot -7.93152 0.713437
ltoes -18.0961
84
root 18.5307 18.2071 -2.22023 -1.11355 0.160859 -5.53762
lowerback 2.78046 0.0103832 5.0085
upperback 1.0212 0.167704 2.98809
thorax -0.504105 0.0864341 0.257215
lowerneck -10.532 -3.30257 -4.53375
upperneck 13.8427 -3.73617 0.0867812
head 6.0183 -2.04412 0.457604
rclavicle -1.61513e-015 4.77083e-015
rhumerus -35.1696 -39.3814 -65.6147
rradius 13.0157
rwrist 27.818
rhand -15.0237 29.0332
rfingers 7.12502
rthumb 11.1419 -0.650968
lclavicle -1.61513e-015 4.77083e-015
lhumerus -5.94463 -0.601829 84.4961
lradius 38.2395
lwrist 20.229
lhand -23.8543 16.2283
lfingers 7.12502
lthumb 2.61803 46.192
rfemur -5.88832 6.62652 32.3621
rtibia 27.8008
rfoot -17.025 -2.48124
rtoes 13.9291
lfemur -37.8915 2.79181 -12.7516
ltibia 77.14
lfoot -8.49912 0.815666
ltoes -15.9302
85
root 18.5291 18.1949 -2.06491 -1.20953 -0.195091 -6.17731
lowerback 2.96607 0.153566 5.60437
upperback 1.12223 0.384469 3.14753
thorax -0.493488 0.196619 0.0826377
lowerneck -10.612 -3.26977 -4.53901
upperneck 13.7344 -3.71012 0.23922
head 5.99979 -2.01867 0.5084
rclavicle -1.44119e-015 -3.22031e-014
rhumerus -32.8359 -39.4749 -67.2721
rradius 13.3153
rwrist 27.1967
rhand -14.8922 28.4831
rfingers 7.12502
rthumb 11.2687 -1.19424
lclavicle -1.44119e-015 -3.22031e-014
lhumerus -6.90805 -0.629172 84.7696
lradius 38.0604
lwrist 20.0983
lhand -23.7053 16.1227
lfingers 7.12502
lthumb 2.762 46.0846
rfemur -4.98338 6.72889 33.2725
rtibia 27.4177
rfoot -16.8953 -2.5509
rtoes 14.9791
lfemur -38.6296 2.9729 -12.0596
ltibia 75.9163
lfoot -8.29826 0.959192
ltoes -12.1596
86
root 18.5275 18.1902 -1.90138 -1.22738 -0.579744 -6.51116
lowerback 3.07741 0.340149 5.90819
upperback 1.14825 0.649579 3.20204
thorax -0.515366 0.329111 -0.0392835
lowerneck -10.5678 -3.26827 -4.39779
upperneck 13.6849 -3.73 0.211927
head 5.97342 -2.02266 0.476436
rclavicle 1.3654e-014 1.86858e-014
rhumerus -30.5375 -39.3937 -69.0274
rradius 13.6278
rwrist 26.1185
rhand -14.9389 27.9103
rfingers 7.12502
rthumb 11.2236 -1.76947
lclavicle 1.3654e-014 1.86858e-014
lhumerus -8.11513 -0.522737 85.0758
lradius 38.0204
lwrist 19.7463
lhand -24.4214 16.458
lfingers 7.12502
lthumb 2.07041 46.4278
rfemur -4.11263 6.9331 33.8128
rtibia 26.9092
rfoot -16.6431 -2.53049
rtoes 15.6931
lfemur -39.241 3.12097 -11.734
ltibia 74.5026
lfoot -8.26306 0.978966
ltoes -10.8453
87
root 18.5386 18.1963 -1.73822 -0.962849 -0.858321 -6.14595
lowerback 2.8305 0.458163 5.63284
upperback 1.10651 0.779186 3.0218
thorax -0.415854 0.395114 -0.0739174
lowerneck -10.3663 -3.31428 -4.15438
upperneck 13.4446 -3.81403 0.016068
head 5.85611 -2.06396 0.373733
rclavicle 1.98785e-016 -3.06128e-014
rhumerus -28.078 -39.0631 -70.958
rradius 13.8703
rwrist 24.7873
rhand -15.4054 28.452
rfingers 7.12502
rthumb 10.7737 -1.25168
lclavicle 1.98785e-016 -3.06128e-014
lhumerus -9.25001 -0.360852 85.2319
lradius 37.6609
lwrist 19.4858
lhand -25.1588 16.7086
lfingers 7.12502
lthumb 1.3582 46.684
rfemur -3.43627 6.71192 33.4357
rtibia 26.2391
rfoot -16.6828 -2.44871
rtoes 14.0894
lfemur -40.0305 2.96388 -12.2741
ltibia 72.9055
lfoot -9.11701 1.40792
ltoes -14.6704
88
root 18.5505 18.1922 -1.57908 -0.708086 -1.13351 -6.04464
lowerback 2.58057 0.606117 5.65161
upperback 1.11179 0.954979 2.92625
thorax -0.260862 0.486341 -0.184459
lowerneck -10.1568 -3.43687 -4.14425
upperneck 13.0581 -3.99957 0.0593911
head 5.70325 -2.14718 0.377466
rclavicle 9.44227e-015 -3.97569e-016
rhumerus -25.7395 -38.9665 -72.5912
rradius 14.1595
rwrist 23.8259
rhand -15.7413 29.7096
rfingers 7.12502
rthumb 10.4497 -0.0107051
lclavicle 9.44227e-015 -3.97569e-016
lhumerus -10.1553 -0.266858 85.4399
lradius 36.9901
lwrist 19.222
lhand -25.1914 16.2942
lfingers 7.12502
lthumb 1.32676 46.2698
rfemur -2.64458 6.22977 33.3038
rtibia 25.5244
rfoot -16.9339 -2.62846
rtoes 10.0117
lfemur -40.8485 2.88154 -12.5041
ltibia 71.2143
lfoot -9.75742 1.84588
ltoes -18.8252
89
root 18.5586 18.1885 -1.41786 -0.640073 -1.4017 -6.19377
lowerback 2.56051 0.768377 5.91139
upperback 1.14423 1.17308 2.89813
thorax -0.20022 0.597681 -0.362312
lowerneck -10.122 -3.50905 -4.20921
upperneck 12.9734 -4.11725 0.255111
head 5.67857 -2.19259 0.441089
rclavicle -4.68386e-015 -2.90226e-014
rhumerus -23.573 -38.8952 -74.0868
rradius 14.5691
rwrist 22.71
rhand -15.3917 30.8721
rfingers 7.12502
rthumb 10.787 1.16909
lclavicle -4.68386e-015 -2.90226e-014
lhumerus -11.352 0.0112636 85.7699
lradius 36.6377
lwrist 18.7229
lhand -25.094 16.5463
lfingers 7.12502
lthumb 1.42078 46.5213
rfemur -1.74628 5.91378 33.4399
rtibia 24.8418
rfoot -16.8474 -2.27139
rtoes 8.80603
lfemur -41.3359 2.89074 -12.4183
ltibia 69.3392
lfoot -9.83145 2.1373
ltoes -19.8548
90
root 18.5664 18.2013 -1.25549 -0.54032 -1.72554 -6.13483
lowerback 2.52207 0.900978 5.91128
upperback 1.15844 1.34501 2.83441
thorax -0.153939 0.684823 -0.43089
lowerneck -10.1981 -3.52125 -4.3127
upperneck 13.0417 -4.13967 0.435518
head 5.71951 -2.19572 0.510516
rclavicle -4.27387e-015 -9.54166e-015
rhumerus -21.2992 -38.0254 -75.8529
rradius 15.1338
rwrist 20.7136
rhand -14.6532 31.6362
rfingers 7.12502
rthumb 11.4992 1.97161
lclavicle -4.27387e-015 -9.54166e-015
lhumerus -12.7679 0.534574 86.0665
lradius 36.5186
lwrist 18.2955
lhand -24.8169 17.0812
lfingers 7.12502
lthumb 1.68845 47.0543
rfemur -0.989674 6.16092 33.3497
rtibia 24.2026
rfoot -16.6465 -1.53312
rtoes 11.8841
lfemur -41.6045 2.86984 -12.5405
ltibia 67.1512
lfoot -9.73975 2.39388
ltoes -19.4358
91
root 18.5695 18.2191 -1.08954 -0.480256 -2.09136 -6.01205
lowerback 2.51278 1.05036 5.77038
upperback 1.19949 1.53716 2.76647
thorax -0.0987251 0.782216 -0.426059
lowerneck -10.2495 -3.62602 -4.35177
upperneck 13.0013 -4.28153 0.495662
head 5.72113 -2.26169 0.523402
rclavicle -9.20621e-015 -1.74931e-014
rhumerus -19.0598 -37.6881 -77.4301
rradius 15.5393
rwrist 19.6425
rhand -14.426 32.3906
rfingers 7.12502
rthumb 11.7183 2.73834
lclavicle -9.20621e-015 -1.74931e-014
lhumerus -14.0171 0.630892 86.2505
lradius 36.2211
lwrist 18.5301
lhand -24.5619 17.4868
lfingers 7.12502
lthumb 1.93467 47.4578
rfemur -0.110616 6.75481 33.2736
rtibia 23.5938
rfoot -16.4342 -1.40537
rtoes 13.7386
lfemur -41.6651 2.8155 -12.6752
ltibia 64.6792
lfoot -9.54845 2.41943
ltoes -18.3459
